# Blender 3.4.1
# www.blender.org
mtllib 2market.mtl
o Cube
v -0.781820 -0.138254 1.000000
v -0.781820 0.138254 1.000000
v -0.781820 -0.138254 -1.000000
v -0.781820 0.138254 -1.000000
v 0.781820 -0.138254 1.000000
v 0.781820 0.138254 1.000000
v 0.781820 -0.138254 -1.000000
v 0.781820 0.138254 -1.000000
v -0.744191 -0.109194 0.960028
v -0.744191 0.109194 0.960028
v -0.744191 0.109194 -0.960028
v -0.744191 -0.109194 -0.960028
v 0.744191 -0.109194 -0.960028
v 0.744191 0.109194 -0.960028
v 0.744191 -0.109194 0.960028
v 0.744191 0.109194 0.960028
vn -1.0000 -0.0000 -0.0000
vn -0.0000 -0.8088 -0.5880
vn 0.6112 0.7915 -0.0000
vn -0.0000 -0.8088 0.5880
vn -0.0000 -1.0000 -0.0000
vn -0.0000 1.0000 -0.0000
vn -0.0000 -0.0000 -1.0000
vn 1.0000 -0.0000 -0.0000
vn -0.0000 -0.0000 1.0000
vn 0.7281 -0.0000 -0.6854
vn 0.7281 -0.0000 0.6854
vn -0.0000 0.8088 0.5880
vn 0.6112 -0.7915 -0.0000
vn -0.0000 0.8088 -0.5880
vt 0.375000 0.000000
vt 0.125000 0.750000
vt 0.875000 0.750000
vt 0.625000 0.000000
vt 0.375000 0.250000
vt 0.125000 0.500000
vt 0.875000 0.500000
vt 0.625000 0.250000
vt 0.375000 0.750000
vt 0.625000 0.750000
vt 0.375000 0.500000
vt 0.625000 0.500000
vt 0.375000 1.000000
vt 0.375000 0.000000
vt 0.125000 0.750000
vt 0.875000 0.750000
vt 0.625000 1.000000
vt 0.625000 0.000000
vt 0.875000 0.500000
vt 0.625000 0.250000
vt 0.375000 0.250000
vt 0.125000 0.500000
vt 0.375000 0.500000
vt 0.625000 0.500000
vt 0.375000 0.750000
vt 0.625000 0.750000
s 0
usemtl Material.001
f 4/7/2 8/12/2 14/24/2 11/19/2
f 5/9/3 7/11/3 13/23/3 15/25/3
f 6/10/4 2/3/4 10/16/4 16/26/4
f 12/21/7 11/20/7 14/24/7 13/23/7
f 13/23/8 14/24/8 16/26/8 15/25/8
f 15/25/9 16/26/9 10/17/9 9/13/9
f 3/5/10 4/8/10 11/20/10 12/21/10
f 2/4/11 1/1/11 9/14/11 10/18/11
f 1/2/12 5/9/12 15/25/12 9/15/12
f 8/12/13 6/10/13 16/26/13 14/24/13
f 7/11/14 3/6/14 12/22/14 13/23/14
usemtl Material.002
f 3/6/5 7/11/5 5/9/5 1/2/5
f 8/12/6 4/7/6 2/3/6 6/10/6
usemtl Material.003
f 1/1/1 2/4/1 4/8/1 3/5/1
